<svg width="57" height="57" viewBox="0 0 57 57" fill="none" xmlns="http://www.w3.org/2000/svg">
<mask id="path-1-inside-1_2004_10" fill="white">
<path d="M41.0324 43.4975C32.5709 50.5976 19.9558 49.4939 12.8558 41.0324V41.0324C5.75572 32.5709 6.8594 19.9558 15.3209 12.8557V12.8557C23.7824 5.7557 36.3975 6.85938 43.4975 15.3209V15.3209C50.5976 23.7824 49.4939 36.3975 41.0324 43.4975V43.4975Z"/>
</mask>
<path d="M25.7115 56.3533L4.29153e-06 25.7115L25.7115 56.3533ZM17.619 10.9274C27.3497 2.76233 41.8571 4.03157 50.0222 13.7623C58.1872 23.493 56.918 38.0004 47.1873 46.1654L37.1757 38.9013C43.0987 33.9312 43.8713 25.1006 38.9013 19.1776C31.8012 10.7161 21.2439 7.88571 15.3209 12.8557L17.619 10.9274ZM50.0222 13.7623C58.1872 23.493 56.918 38.0004 47.1873 46.1654C37.4565 54.3305 22.9492 53.0612 14.7841 43.3305L12.8558 41.0324C17.8258 46.9554 28.7142 46.0013 37.1757 38.9013C43.0987 33.9312 43.8713 25.1006 38.9013 19.1776L50.0222 13.7623ZM4.29153e-06 25.7115L30.6418 -1.38283e-05L4.29153e-06 25.7115Z" fill="#F1F5F9" mask="url(#path-1-inside-1_2004_10)"/>
<mask id="path-3-inside-2_2004_10" fill="white">
<path d="M16.1803 11.7557C25.1165 5.26321 37.6239 7.24418 44.1164 16.1803V16.1803C50.6089 25.1165 48.6279 37.6239 39.6918 44.1164V44.1164C30.7556 50.6089 18.2482 48.6279 11.7557 39.6917V39.6917C5.26321 30.7556 7.24419 18.2482 16.1803 11.7557V11.7557Z"/>
</mask>
<path d="M32.3607 0L55.8721 32.3607L32.3607 0ZM37.2647 45.8797C26.9881 53.3461 12.6046 51.068 5.13825 40.7914C-2.32812 30.5148 -0.049999 16.1313 10.2266 8.66496L19.7071 16.6098C13.4517 21.1546 12.0651 29.9097 16.6098 36.165C23.1023 45.1012 33.4364 48.6611 39.6918 44.1164L37.2647 45.8797ZM5.13825 40.7914C-2.32812 30.5148 -0.049999 16.1313 10.2266 8.66496C20.5032 1.19859 34.8867 3.47671 42.353 13.7533L44.1164 16.1803C39.5716 9.92503 28.6432 10.1173 19.7071 16.6098C13.4517 21.1546 12.0651 29.9097 16.6098 36.165L5.13825 40.7914ZM55.8721 32.3607L23.5114 55.8721L55.8721 32.3607Z" fill="#16A34A" mask="url(#path-3-inside-2_2004_10)"/>
</svg>
